<svg width="1300" height="776" fill="none" xmlns="http://www.w3.org/2000/svg">
    <!-- Sky -->
    <rect x="0" y="0" width="1300" height="776" fill="#A0DAF7"/>
    <!-- Land -->
    <rect x="0" y="526" width="1300" height="80" fill="#79C87C"/>
    <!-- Road -->
    <rect x="0" y="606" width="1300" height="170" fill="#727E8A"/>
    <!-- Buildings -->
    <use href="#buildings" x="0" y="0"/>
    <use href="#buildings" x="200" y="0"/>
    <use href="#buildings" x="400" y="0"/>
    <!-- Grass -->
    <path xmlns="http://www.w3.org/2000/svg" d="M40.0561 498.71C18.3068 495.68 4.2978 514.279 0.512 523.957V526.482H338.262C330.601 513.714 338.262 488.179 290.595 488.179C281.493 476.06 252.337 464.626 243.487 467.151C237.419 441.903 220.731 450.74 213.145 458.314C179.769 439.126 140.2406 461.26 124.6483 474.725C102.3976 448.468 82.5068 468.834 75.34272 482.299C57.8738 477.25 44.2634 491.136 40.0561 498.71Z" fill="#22AB28"/>
    <use href="#small-grass" x="0" y="0"/>
    <use href="#small-grass" x="400" y="0"/>
    
    <defs>
        <path id="small-grass" d="M720.029 516.536C709.239 515.451 702.454 522.112 700.411 525.578V526.482H864.69C860.975 521.91 864.69 512.765 841.576 512.765C837.162 508.425 823.023 504.33 818.732 505.234C815.789 496.192 807.697 499.357 804.018 502.07C787.833 495.198 768.665 503.124 761.104 507.947C750.314 498.543 740.668 505.837 737.194 510.659C727.876 508.851 721.868 513.824 720.029 516.536Z" fill="#61BA64"/>

        <g id="buildings" opacity="0.4">
            <g opacity="0.18">
                <g opacity="0.18">
                    <g opacity="0.18">
                        <path opacity="0.18" d="M817.548 545.126H778.621V619.859H817.548V545.126Z" fill="#B5C3C2"/>
                        <path opacity="0.18" d="M811.189 593.856H784.98V625.252H811.189V593.856Z" fill="#B5C3C2"/>
                        <path opacity="0.18" d="M805.311 611.192H790.762V628.623H805.311V611.192Z" fill="#B5C3C2"/>
                        <path opacity="0.18" d="M802.999 619.667H793.074V631.512H796.639H800.204H802.999V619.667Z" fill="#B5C3C2"/>
                        <g opacity="0.18">
                            <path opacity="0.18" d="M797.41 624.867H796.35V636.713H796.736H797.121H797.41V624.867Z" fill="#B5C3C2"/>
                            <path opacity="0.18" d="M799.819 628.912H798.663V640.854H799.048H799.433H799.819V628.912Z" fill="#B5C3C2"/>
                        </g>
                        <path opacity="0.18" d="M818.608 619.281H777.561V620.052H818.608V619.281Z" fill="#B5C3C2"/>
                        <path opacity="0.18" d="M812.152 624.867H784.017V625.638H812.152V624.867Z" fill="#B5C3C2"/>
                        <path opacity="0.18" d="M805.889 628.334H789.702V628.912H805.889V628.334Z" fill="#B5C3C2"/>
                        <path opacity="0.29" d="M788.642 620.63H787.389V623.904H788.642V620.63Z" fill="#B5C3C2"/>
                        <path opacity="0.29" d="M792.014 620.63H790.762V623.904H792.014V620.63Z" fill="#B5C3C2"/>
                        <path opacity="0.29" d="M795.387 620.63H794.134V623.904H795.387V620.63Z" fill="#B5C3C2"/>
                        <path opacity="0.29" d="M798.759 620.63H797.506V623.904H798.759V620.63Z" fill="#B5C3C2"/>
                        <path opacity="0.18" d="M784.98 613.021H781.993V616.97H784.98V613.021Z" fill="#B5C3C2"/>
                        <path opacity="0.29" d="M790.858 613.021H787.871V616.97H790.858V613.021Z" fill="#B5C3C2"/>
                        <path opacity="0.18" d="M796.639 613.021H793.652V616.97H796.639V613.021Z" fill="#B5C3C2"/>
                        <path opacity="0.18" d="M802.517 613.021H799.53V616.97H802.517V613.021Z" fill="#B5C3C2"/>
                        <path opacity="0.18" d="M784.98 606.954H781.993V610.903H784.98V606.954Z" fill="#B5C3C2"/>
                        <path opacity="0.18" d="M790.858 606.954H787.871V610.903H790.858V606.954Z" fill="#B5C3C2"/>
                        <path opacity="0.18" d="M796.639 606.954H793.652V610.903H796.639V606.954Z" fill="#B5C3C2"/>
                        <path opacity="0.29" d="M802.517 606.954H799.53V610.903H802.517V606.954Z" fill="#B5C3C2"/>
                        <path opacity="0.18" d="M784.98 600.791H781.993V604.739H784.98V600.791Z" fill="#B5C3C2"/>
                        <path opacity="0.18" d="M790.858 600.791H787.871V604.739H790.858V600.791Z" fill="#B5C3C2"/>
                        <path opacity="0.18" d="M796.639 600.791H793.652V604.739H796.639V600.791Z" fill="#B5C3C2"/>
                        <path opacity="0.18" d="M802.517 600.791H799.53V604.739H802.517V600.791Z" fill="#B5C3C2"/>
                        <path opacity="0.29" d="M784.98 594.723H781.993V598.672H784.98V594.723Z" fill="#B5C3C2"/>
                        <path opacity="0.18" d="M790.858 594.723H787.871V598.672H790.858V594.723Z" fill="#B5C3C2"/>
                        <path opacity="0.18" d="M796.639 594.723H793.652V598.672H796.639V594.723Z" fill="#B5C3C2"/>
                        <path opacity="0.18" d="M802.517 594.723H799.53V598.672H802.517V594.723Z" fill="#B5C3C2"/>
                        <path opacity="0.18" d="M784.98 588.656H781.993V592.604H784.98V588.656Z" fill="#B5C3C2"/>
                        <path opacity="0.29" d="M790.858 588.656H787.871V592.604H790.858V588.656Z" fill="#B5C3C2"/>
                        <path opacity="0.18" d="M796.639 588.656H793.652V592.604H796.639V588.656Z" fill="#B5C3C2"/>
                        <path opacity="0.29" d="M802.517 588.656H799.53V592.604H802.517V588.656Z" fill="#B5C3C2"/>
                        <path opacity="0.18" d="M784.98 582.589H781.993V586.537H784.98V582.589Z" fill="#B5C3C2"/>
                        <path opacity="0.18" d="M790.858 582.589H787.871V586.537H790.858V582.589Z" fill="#B5C3C2"/>
                        <path opacity="0.18" d="M796.639 582.589H793.652V586.537H796.639V582.589Z" fill="#B5C3C2"/>
                        <path opacity="0.18" d="M802.517 582.589H799.53V586.537H802.517V582.589Z" fill="#B5C3C2"/>
                        <path opacity="0.18" d="M784.98 576.521H781.993V580.47H784.98V576.521Z" fill="#B5C3C2"/>
                        <path opacity="0.29" d="M790.858 576.521H787.871V580.47H790.858V576.521Z" fill="#B5C3C2"/>
                        <path opacity="0.29" d="M796.639 576.521H793.652V580.47H796.639V576.521Z" fill="#B5C3C2"/>
                        <path opacity="0.18" d="M802.517 576.521H799.53V580.47H802.517V576.521Z" fill="#B5C3C2"/>
                        <path opacity="0.18" d="M784.98 570.454H781.993V574.403H784.98V570.454Z" fill="#B5C3C2"/>
                        <path opacity="0.18" d="M790.858 570.454H787.871V574.403H790.858V570.454Z" fill="#B5C3C2"/>
                        <path opacity="0.18" d="M796.639 570.454H793.652V574.403H796.639V570.454Z" fill="#B5C3C2"/>
                        <path opacity="0.18" d="M802.517 570.454H799.53V574.403H802.517V570.454Z" fill="#B5C3C2"/>
                        <path opacity="0.18" d="M784.98 564.291H781.993V568.239H784.98V564.291Z" fill="#B5C3C2"/>
                        <path opacity="0.29" d="M790.858 564.291H787.871V568.239H790.858V564.291Z" fill="#B5C3C2"/>
                        <path opacity="0.18" d="M796.639 564.291H793.652V568.239H796.639V564.291Z" fill="#B5C3C2"/>
                        <path opacity="0.18" d="M802.517 564.291H799.53V568.239H802.517V564.291Z" fill="#B5C3C2"/>
                        <path opacity="0.18" d="M784.98 558.223H781.993V562.172H784.98V558.223Z" fill="#B5C3C2"/>
                        <path opacity="0.18" d="M790.858 558.223H787.871V562.172H790.858V558.223Z" fill="#B5C3C2"/>
                        <path opacity="0.18" d="M796.639 558.223H793.652V562.172H796.639V558.223Z" fill="#B5C3C2"/>
                        <path opacity="0.29" d="M802.517 558.223H799.53V562.172H802.517V558.223Z" fill="#B5C3C2"/>
                        <path opacity="0.29" d="M784.98 552.156H781.993V556.105H784.98V552.156Z" fill="#B5C3C2"/>
                        <path opacity="0.18" d="M790.858 552.156H787.871V556.105H790.858V552.156Z" fill="#B5C3C2"/>
                        <path opacity="0.29" d="M796.639 552.156H793.652V556.105H796.639V552.156Z" fill="#B5C3C2"/>
                        <path opacity="0.18" d="M802.517 552.156H799.53V556.105H802.517V552.156Z" fill="#B5C3C2"/>
                    </g>
                    <g opacity="0.18">
                        <path opacity="0.18" d="M728.035 554.082H665.5V617.066H728.035V554.082Z" fill="#B5C3C2"/>
                        <path opacity="0.18" d="M729.865 616.296H663.766V618.029H729.865V616.296Z" fill="#B5C3C2"/>
                        <path opacity="0.18" d="M726.011 611.962H667.62V620.437H726.011V611.962Z" fill="#B5C3C2"/>
                        <path opacity="0.18" d="M695.274 614.659H672.149V623.904H695.274V614.659Z" fill="#B5C3C2"/>
                        <path opacity="0.18" d="M685.446 621.304H672.149V626.119H681.688L685.446 621.304Z" fill="#B5C3C2"/>
                        <path opacity="0.18" d="M678.798 619.281H677.545V630.068H678.798V619.281Z" fill="#B5C3C2"/>
                        <path opacity="0.18" d="M678.123 631.32C678.762 631.32 679.279 631.061 679.279 630.742C679.279 630.423 678.762 630.164 678.123 630.164C677.484 630.164 676.967 630.423 676.967 630.742C676.967 631.061 677.484 631.32 678.123 631.32Z" fill="#B5C3C2"/>
                    </g>
                </g>
                <path opacity="0.18" d="M1396.54 541.081H578.107V550.422H1396.54V541.081Z" fill="#B5C3C2"/>
                <g opacity="0.18">
                    <path opacity="0.18" d="M1408.01 527.213H548.719V542.044H1408.01V527.213Z" fill="#95A9A7"/>
                    <path opacity="0.18" d="M840.095 540.599H790.184V578.833H840.095V540.599Z" fill="#95A9A7"/>
                    <path opacity="0.18" d="M782.668 540.599H696.816V559.283H782.668V540.599Z" fill="#95A9A7"/>
                    <path opacity="0.18" d="M761.759 555.141H742.873V600.983H761.759V555.141Z" fill="#95A9A7"/>
                    <path opacity="0.18" d="M747.98 588.271H747.017V613.214H747.98V588.271Z" fill="#95A9A7"/>
                    <path opacity="0.18" d="M751.16 586.345H750.196V611.288H751.16V586.345Z" fill="#95A9A7"/>
                    <path opacity="0.18" d="M755.881 597.613H744.319V603.776H755.881V597.613Z" fill="#95A9A7"/>
                    <path opacity="0.18" d="M812.152 540.599H779.295V571.995H812.152V540.599Z" fill="#95A9A7"/>
                    <path opacity="0.18" d="M662.61 540.599H629.271V574.499H662.61V540.599Z" fill="#95A9A7"/>
                    <g opacity="0.18">
                        <path opacity="0.18" d="M706.451 540.599H640.063V583.744H706.451V540.599Z" fill="#95A9A7"/>
                        <path opacity="0.18" d="M708.089 583.744H636.112V585.382H708.089V583.744Z" fill="#95A9A7"/>
                        <path opacity="0.18" d="M672.149 581.144H642.953V589.908H672.149V581.144Z" fill="#95A9A7"/>
                        <path opacity="0.18" d="M686.602 584.515H681.688V589.812H686.602V584.515Z" fill="#95A9A7"/>
                        <path opacity="0.18" d="M696.816 584.515H691.42V589.812H696.816V584.515Z" fill="#95A9A7"/>
                    </g>
                    <path opacity="0.18" d="M645.941 540.599H611.156V553.697H645.941V540.599Z" fill="#95A9A7"/>
                    <path opacity="0.18" d="M614.432 540.599H597.956V559.283H614.432V540.599Z" fill="#95A9A7"/>
                    <path opacity="0.18" d="M606.242 540.599H578.107V547.148H606.242V540.599Z" fill="#95A9A7"/>
                </g>
                <g opacity="0.18">
                    <path opacity="0.18" d="M772.743 591.064V590.389H771.298V588.367H796.639V527.213H755.111V585.189V588.367V590.389H753.569V591.064H772.743Z" fill="#658280"/>
                    <g opacity="0.18">
                        <path opacity="0.18" d="M717.339 527.213H688.433V571.513H717.339V527.213Z" fill="#658280"/>
                        <path opacity="0.18" d="M743.162 527.213H711.654V562.268H743.162V527.213Z" fill="#658280"/>
                        <path opacity="0.18" d="M711.654 568.047H698.839V573.343H711.654V568.047Z" fill="#658280"/>
                        <path opacity="0.18" d="M747.402 561.594H713.774V562.846H747.402V561.594Z" fill="#658280"/>
                    </g>
                    <path opacity="0.18" d="M775.152 527.213H739.79V547.244H775.152V527.213Z" fill="#658280"/>
                    <path opacity="0.18" d="M654.323 527.213H625.61V563.52H654.323V527.213Z" fill="#658280"/>
                    <path opacity="0.18" d="M638.425 527.213H600.654V545.415H638.425V527.213Z" fill="#658280"/>
                    <path opacity="0.18" d="M582.635 527.213H559.029V548.4H582.635V527.213Z" fill="#658280"/>
                    <path opacity="0.18" d="M633.992 527.213H578.107V533.858H633.992V527.213Z" fill="#658280"/>
                    <path opacity="0.18" d="M566.255 527.213H537.638V535.977H566.255V527.213Z" fill="#658280"/>
                    <path opacity="0.18" d="M698.839 527.213H654.323V540.599H698.839V527.213Z" fill="#658280"/>
                    <path opacity="0.18" d="M854.356 527.213H784.98V532.991H854.356V527.213Z" fill="#658280"/>
                </g>
            </g>
            <path d="M817.548 334.504H778.621V489.364H817.548V334.504Z" fill="#B5C3C2"/>
            <path d="M811.189 323.429H784.98V388.532H811.189V323.429Z" fill="#B5C3C2"/>
            <path d="M805.311 316.399H790.762V352.513H805.311V316.399Z" fill="#B5C3C2"/>
            <path d="M802.999 334.889H793.074V310.331H796.639H800.204H802.999V334.889Z" fill="#B5C3C2"/>
            <path d="M797.41 324.199H796.35V299.545H796.736H797.121H797.41V324.199Z" fill="#B5C3C2"/>
            <path d="M799.819 315.724H798.663V291.07H799.048H799.433H799.819V315.724Z" fill="#B5C3C2"/>
            <path d="M818.608 334.119H777.561V335.756H818.608V334.119Z" fill="#B5C3C2"/>
            <path d="M812.152 322.562H784.017V324.103H812.152V322.562Z" fill="#B5C3C2"/>
            <path d="M805.889 315.724H789.702V316.976H805.889V315.724Z" fill="#B5C3C2"/>
            <path opacity="0.29" d="M788.642 326.029H787.389V332.867H788.642V326.029Z" fill="#B5C3C2"/>
            <path opacity="0.29" d="M792.014 326.029H790.762V332.867H792.014V326.029Z" fill="#B5C3C2"/>
            <path opacity="0.29" d="M795.387 326.029H794.134V332.867H795.387V326.029Z" fill="#B5C3C2"/>
            <path opacity="0.29" d="M798.759 326.029H797.506V332.867H798.759V326.029Z" fill="#B5C3C2"/>
            <path d="M784.98 340.668H781.993V348.757H784.98V340.668Z" fill="#B5C3C2"/>
            <path opacity="0.29" d="M790.858 340.668H787.871V348.757H790.858V340.668Z" fill="#B5C3C2"/>
            <path d="M796.639 340.668H793.652V348.757H796.639V340.668Z" fill="#B5C3C2"/>
            <path d="M802.517 340.668H799.53V348.757H802.517V340.668Z" fill="#B5C3C2"/>
            <path d="M784.98 353.284H781.993V361.374H784.98V353.284Z" fill="#B5C3C2"/>
            <path d="M790.858 353.284H787.871V361.374H790.858V353.284Z" fill="#B5C3C2"/>
            <path d="M796.639 353.284H793.652V361.374H796.639V353.284Z" fill="#B5C3C2"/>
            <path opacity="0.29" d="M802.517 353.284H799.53V361.374H802.517V353.284Z" fill="#B5C3C2"/>
            <path d="M784.98 365.9H781.993V373.99H784.98V365.9Z" fill="#B5C3C2"/>
            <path d="M790.858 365.9H787.871V373.99H790.858V365.9Z" fill="#B5C3C2"/>
            <path d="M796.639 365.9H793.652V373.99H796.639V365.9Z" fill="#B5C3C2"/>
            <path d="M802.517 365.9H799.53V373.99H802.517V365.9Z" fill="#B5C3C2"/>
            <path opacity="0.29" d="M784.98 378.516H781.993V386.606H784.98V378.516Z" fill="#B5C3C2"/>
            <path d="M790.858 378.516H787.871V386.606H790.858V378.516Z" fill="#B5C3C2"/>
            <path d="M796.639 378.516H793.652V386.606H796.639V378.516Z" fill="#B5C3C2"/>
            <path d="M802.517 378.516H799.53V386.606H802.517V378.516Z" fill="#B5C3C2"/>
            <path d="M784.98 391.132H781.993V399.222H784.98V391.132Z" fill="#B5C3C2"/>
            <path opacity="0.29" d="M790.858 391.132H787.871V399.222H790.858V391.132Z" fill="#B5C3C2"/>
            <path d="M796.639 391.132H793.652V399.222H796.639V391.132Z" fill="#B5C3C2"/>
            <path opacity="0.29" d="M802.517 391.132H799.53V399.222H802.517V391.132Z" fill="#B5C3C2"/>
            <path d="M784.98 403.748H781.993V411.838H784.98V403.748Z" fill="#B5C3C2"/>
            <path d="M790.858 403.748H787.871V411.838H790.858V403.748Z" fill="#B5C3C2"/>
            <path d="M796.639 403.748H793.652V411.838H796.639V403.748Z" fill="#B5C3C2"/>
            <path d="M802.517 403.748H799.53V411.838H802.517V403.748Z" fill="#B5C3C2"/>
            <path d="M784.98 416.364H781.993V424.454H784.98V416.364Z" fill="#B5C3C2"/>
            <path opacity="0.29" d="M790.858 416.364H787.871V424.454H790.858V416.364Z" fill="#B5C3C2"/>
            <path opacity="0.29" d="M796.639 416.364H793.652V424.454H796.639V416.364Z" fill="#B5C3C2"/>
            <path d="M802.517 416.364H799.53V424.454H802.517V416.364Z" fill="#B5C3C2"/>
            <path d="M784.98 428.98H781.993V437.07H784.98V428.98Z" fill="#B5C3C2"/>
            <path d="M790.858 428.98H787.871V437.07H790.858V428.98Z" fill="#B5C3C2"/>
            <path d="M796.639 428.98H793.652V437.07H796.639V428.98Z" fill="#B5C3C2"/>
            <path d="M802.517 428.98H799.53V437.07H802.517V428.98Z" fill="#B5C3C2"/>
            <path d="M784.98 441.597H781.993V449.686H784.98V441.597Z" fill="#B5C3C2"/>
            <path opacity="0.29" d="M790.858 441.597H787.871V449.686H790.858V441.597Z" fill="#B5C3C2"/>
            <path d="M796.639 441.597H793.652V449.686H796.639V441.597Z" fill="#B5C3C2"/>
            <path d="M802.517 441.597H799.53V449.686H802.517V441.597Z" fill="#B5C3C2"/>
            <path d="M784.98 454.213H781.993V462.302H784.98V454.213Z" fill="#B5C3C2"/>
            <path d="M790.858 454.213H787.871V462.302H790.858V454.213Z" fill="#B5C3C2"/>
            <path d="M796.639 454.213H793.652V462.302H796.639V454.213Z" fill="#B5C3C2"/>
            <path opacity="0.29" d="M802.517 454.213H799.53V462.302H802.517V454.213Z" fill="#B5C3C2"/>
            <path opacity="0.29" d="M784.98 466.829H781.993V474.918H784.98V466.829Z" fill="#B5C3C2"/>
            <path d="M790.858 466.829H787.871V474.918H790.858V466.829Z" fill="#B5C3C2"/>
            <path opacity="0.29" d="M796.639 466.829H793.652V474.918H796.639V466.829Z" fill="#B5C3C2"/>
            <path d="M802.517 466.829H799.53V474.918H802.517V466.829Z" fill="#B5C3C2"/>
            <path d="M728.035 340.379H665.5V470.874H728.035V340.379Z" fill="#B5C3C2"/>
            <path d="M729.865 338.164H663.766V341.823H729.865V338.164Z" fill="#B5C3C2"/>
            <path d="M726.011 333.445H667.62V350.972H726.011V333.445Z" fill="#B5C3C2"/>
            <path d="M695.274 326.222H672.149V345.387H695.274V326.222Z" fill="#B5C3C2"/>
            <path d="M685.446 331.615H672.149V321.599H681.688L685.446 331.615Z" fill="#B5C3C2"/>
            <path d="M678.798 313.221H677.545V335.66H678.798V313.221Z" fill="#B5C3C2"/>
            <path d="M679.279 312.065C679.279 312.739 678.798 313.221 678.123 313.221C677.449 313.221 676.967 312.739 676.967 312.065C676.967 311.391 677.449 310.909 678.123 310.909C678.798 310.909 679.279 311.391 679.279 312.065Z" fill="#B5C3C2"/>
            <path d="M782.668 460.087H696.816V498.802H782.668V460.087Z" fill="#95A9A7"/>
            <path d="M761.759 373.701H742.873V468.659H761.759V373.701Z" fill="#95A9A7"/>
            <path d="M747.98 348.372H747.017V399.992H747.98V348.372Z" fill="#95A9A7"/>
            <path d="M751.16 352.321H750.196V403.941H751.16V352.321Z" fill="#95A9A7"/>
            <path d="M755.881 367.826H744.319V380.539H755.881V367.826Z" fill="#95A9A7"/>
            <path d="M812.152 433.699H779.295V498.802H812.152V433.699Z" fill="#95A9A7"/>
            <path d="M662.61 428.595H629.271V498.802H662.61V428.595Z" fill="#95A9A7"/>
            <path d="M706.451 409.43H640.063V498.802H706.451V409.43Z" fill="#95A9A7"/>
            <path d="M708.089 406.06H636.112V409.527H708.089V406.06Z" fill="#95A9A7"/>
            <path d="M672.149 396.718H642.953V414.823H672.149V396.718Z" fill="#95A9A7"/>
            <path d="M686.602 396.718H681.688V407.697H686.602V396.718Z" fill="#95A9A7"/>
            <path d="M696.816 396.718H691.42V407.697H696.816V396.718Z" fill="#95A9A7"/>
            <path d="M645.941 471.644H611.156V498.802H645.941V471.644Z" fill="#95A9A7"/>
            <path d="M614.432 460.087H597.956V498.802H614.432V460.087Z" fill="#95A9A7"/>
            <path d="M606.242 485.223H578.107V498.802H606.242V485.223Z" fill="#95A9A7"/>
            <path d="M772.743 394.31V395.755H771.298V399.8H796.639V526.635H755.111V406.445V399.8V395.755H753.569V394.31H772.743Z" fill="#658280"/>
            <path d="M717.339 434.759H688.433V526.635H717.339V434.759Z" fill="#658280"/>
            <path d="M743.162 453.827H711.654V526.539H743.162V453.827Z" fill="#658280"/>
            <path d="M711.654 431.003H698.839V441.982H711.654V431.003Z" fill="#658280"/>
            <path d="M747.402 452.672H713.774V455.368H747.402V452.672Z" fill="#658280"/>
            <path d="M775.152 485.031H739.79V526.539H775.152V485.031Z" fill="#658280"/>
            <path d="M654.323 451.227H625.61V526.539H654.323V451.227Z" fill="#658280"/>
            <path d="M638.425 488.787H600.654V526.539H638.425V488.787Z" fill="#658280"/>
            <path d="M582.635 482.623H559.029V526.539H582.635V482.623Z" fill="#658280"/>
            <path d="M633.992 512.863H578.107V526.635H633.992V512.863Z" fill="#658280"/>
            <path d="M566.255 508.337H537.638V526.539H566.255V508.337Z" fill="#658280"/>
            <path d="M698.839 498.802H654.323V526.635H698.839V498.802Z" fill="#658280"/>
            <path d="M854.356 514.597H784.98V526.539H854.356V514.597Z" fill="#658280"/>
            <g opacity="0.52">
                <path opacity="0.52" d="M693.636 439.382H691.42V441.597H693.636V439.382Z" fill="white"/>
                <path opacity="0.52" d="M698.068 439.382H695.852V441.597H698.068V439.382Z" fill="white"/>
                <path opacity="0.52" d="M693.636 444.486H691.42V446.701H693.636V444.486Z" fill="white"/>
                <path opacity="0.52" d="M698.068 444.486H695.852V446.701H698.068V444.486Z" fill="white"/>
                <path opacity="0.52" d="M693.636 449.494H691.42V451.709H693.636V449.494Z" fill="white"/>
                <path opacity="0.52" d="M702.983 439.382H700.766V441.597H702.983V439.382Z" fill="white"/>
            </g>
            <path opacity="0.4" d="M700.67 348.757H698.839V355.884H700.67V348.757Z" fill="white"/>
            <path opacity="0.4" d="M707.319 348.757H705.488V355.884H707.319V348.757Z" fill="white"/>
            <path opacity="0.4" d="M714.931 348.757H713.1V355.884H714.931V348.757Z" fill="white"/>
            <path opacity="0.4" d="M721.579 348.757H719.748V355.884H721.579V348.757Z" fill="white"/>
            <path opacity="0.4" d="M686.024 348.757H684.193V355.884H686.024V348.757Z" fill="white"/>
            <path opacity="0.4" d="M692.673 348.757H690.842V355.884H692.673V348.757Z" fill="white"/>
            <path opacity="0.4" d="M700.67 361.181H698.839V368.308H700.67V361.181Z" fill="white"/>
            <path opacity="0.4" d="M707.319 361.181H705.488V368.308H707.319V361.181Z" fill="white"/>
            <path opacity="0.4" d="M714.931 361.181H713.1V368.308H714.931V361.181Z" fill="white"/>
            <path opacity="0.4" d="M721.579 361.181H719.748V368.308H721.579V361.181Z" fill="white"/>
            <path opacity="0.4" d="M686.024 361.181H684.193V368.308H686.024V361.181Z" fill="white"/>
            <path opacity="0.4" d="M692.673 361.181H690.842V368.308H692.673V361.181Z" fill="white"/>
            <path opacity="0.4" d="M700.67 373.701H698.839V380.827H700.67V373.701Z" fill="white"/>
            <path opacity="0.4" d="M707.319 373.701H705.488V380.827H707.319V373.701Z" fill="white"/>
            <path opacity="0.4" d="M714.931 373.701H713.1V380.827H714.931V373.701Z" fill="white"/>
            <path opacity="0.4" d="M721.579 373.701H719.748V380.827H721.579V373.701Z" fill="white"/>
            <path opacity="0.4" d="M686.024 373.701H684.193V380.827H686.024V373.701Z" fill="white"/>
            <path opacity="0.4" d="M692.673 373.701H690.842V380.827H692.673V373.701Z" fill="white"/>
        </g>
    </defs>
</svg>